<svg xmlns="http://www.w3.org/2000/svg" viewBox="0.5 25.5 460 460" role="img" aria-label="Stage Plot — orchestra in scala">
<rect x="0.5" y="25.5" width="460" height="460" rx="100" fill="#0f172a"/>
<circle cx="230.5" cy="90.9" r="6.4" fill="#ffffff"/><circle cx="89.1" cy="124.7" r="6.4" fill="#f0f2f5"/><circle cx="371.9" cy="124.7" r="6.4" fill="#f0f2f5"/><circle cx="230.5" cy="132.4" r="6.4" fill="#eceff3"/><circle cx="138.3" cy="148.7" r="6.4" fill="#e5e8ee"/><circle cx="322.7" cy="148.7" r="6.4" fill="#e5e8ee"/><circle cx="230.5" cy="176.0" r="6.4" fill="#d9dee6"/><circle cx="167.3" cy="185.0" r="6.4" fill="#d5dae3"/><circle cx="293.7" cy="185.0" r="6.4" fill="#d5dae3"/><circle cx="57.1" cy="195.4" r="6.4" fill="#d0d6e0"/><circle cx="403.9" cy="195.4" r="6.4" fill="#d0d6e0"/><circle cx="109.1" cy="211.3" r="6.4" fill="#c9d0db"/><circle cx="351.9" cy="211.3" r="6.4" fill="#c9d0db"/><circle cx="210.2" cy="222.7" r="6.4" fill="#c4cbd8"/><circle cx="250.8" cy="222.7" r="6.4" fill="#c4cbd8"/><circle cx="170.6" cy="231.7" r="6.4" fill="#c0c8d5"/><circle cx="290.4" cy="231.7" r="6.4" fill="#c0c8d5"/><circle cx="134.3" cy="249.4" r="6.4" fill="#b8c1d0"/><circle cx="326.7" cy="249.4" r="6.4" fill="#b8c1d0"/><circle cx="60.5" cy="253.0" r="6.4" fill="#b7bfcf"/><circle cx="400.5" cy="253.0" r="6.4" fill="#b7bfcf"/><circle cx="215.4" cy="266.0" r="6.6" fill="#b1bacb"/><circle cx="245.6" cy="266.0" r="6.6" fill="#b1bacb"/><circle cx="185.8" cy="272.9" r="6.6" fill="#aeb8c9"/><circle cx="275.2" cy="272.9" r="6.6" fill="#aeb8c9"/><circle cx="102.5" cy="274.6" r="6.4" fill="#adb7c8"/><circle cx="358.5" cy="274.6" r="6.4" fill="#adb7c8"/><circle cx="158.3" cy="285.9" r="6.6" fill="#a8b2c5"/><circle cx="302.7" cy="285.9" r="6.6" fill="#a8b2c5"/><circle cx="134.6" cy="304.5" r="6.6" fill="#a0abbf"/><circle cx="326.4" cy="304.5" r="6.6" fill="#a0abbf"/><circle cx="25.6" cy="306.5" r="6.4" fill="#9faabf"/><circle cx="77.4" cy="306.5" r="6.4" fill="#9faabf"/><circle cx="230.5" cy="306.8" r="6.6" fill="#9faabf"/><circle cx="383.6" cy="306.5" r="6.4" fill="#9faabf"/><circle cx="435.4" cy="306.5" r="6.4" fill="#9faabf"/><circle cx="202.6" cy="311.0" r="6.6" fill="#9da9bd"/><circle cx="258.4" cy="311.0" r="6.6" fill="#9da9bd"/><circle cx="177.2" cy="323.1" r="6.6" fill="#97a4ba"/><circle cx="283.7" cy="323.1" r="6.6" fill="#97a4ba"/><circle cx="115.4" cy="328.0" r="6.6" fill="#95a2b8"/><circle cx="345.6" cy="328.0" r="6.6" fill="#95a2b8"/><circle cx="156.6" cy="342.2" r="6.6" fill="#8f9cb4"/><circle cx="304.4" cy="342.2" r="6.6" fill="#8f9cb4"/><circle cx="59.8" cy="343.3" r="6.4" fill="#8e9cb4"/><circle cx="401.1" cy="343.3" r="6.4" fill="#8e9cb4"/><circle cx="102.0" cy="355.1" r="6.7" fill="#8997b0"/><circle cx="359.0" cy="355.1" r="6.7" fill="#8997b0"/><circle cx="142.1" cy="366.1" r="6.6" fill="#8493ad"/><circle cx="318.8" cy="366.1" r="6.6" fill="#8493ad"/>
<rect x="208.5" y="386" width="44" height="34" rx="9" fill="#366fed"/><circle cx="230.5" cy="403" r="7.5" fill="none" stroke="#ffffff" stroke-width="3.5"/>
</svg>
