<svg xmlns="http://www.w3.org/2000/svg" viewBox="-475 -400 1004 538" role="img" aria-label="Anteprima stage plot Trio acustico" font-family="-apple-system,Segoe UI,Roboto,sans-serif"><rect x="-475" y="-400" width="1004" height="538" fill="#f4f1ea"/><rect x="-435" y="-360" width="924" height="458" rx="16" fill="#fffdfa" stroke="#e6e1d8" stroke-width="3"/><text x="27" y="-372" text-anchor="middle" fill="#9a948b" font-size="26" letter-spacing="2">FONDO PALCO</text><text x="27" y="126" text-anchor="middle" fill="#9a948b" font-size="26" letter-spacing="2">PUBBLICO</text><rect x="-325" y="-330" width="650" height="360" rx="10" fill="#efece6" stroke="#e0dace" stroke-width="2"/><circle cx="-260" cy="-150" r="15" fill="#0d9488"/><text x="-260" y="-116" text-anchor="middle" fill="#3a352f" font-size="20">Piano</text><circle cx="-330" cy="-60" r="15" fill="#0d9488"/><text x="-330" y="-26" text-anchor="middle" fill="#3a352f" font-size="20">DI piano</text><circle cx="140" cy="-145" r="15" fill="#0d9488"/><text x="140" y="-111" text-anchor="middle" fill="#3a352f" font-size="20">Chitarra acustica</text><circle cx="205" cy="-65" r="15" fill="#0d9488"/><text x="205" y="-31" text-anchor="middle" fill="#3a352f" font-size="20">DI chitarra</text><circle cx="330" cy="-170" r="15" fill="#0d9488"/><text x="330" y="-136" text-anchor="middle" fill="#3a352f" font-size="20">Cajon</text><circle cx="330" cy="-118" r="15" fill="#0d9488"/><circle cx="0" cy="-55" r="15" fill="#0d9488"/><text x="0" y="-21" text-anchor="middle" fill="#3a352f" font-size="20">Voce</text><circle cx="0" cy="-225" r="15" fill="#0d9488"/><text x="0" y="-191" text-anchor="middle" fill="#3a352f" font-size="20">Ambienti L/R</text><circle cx="0" cy="42" r="15" fill="#3b82f6"/><text x="0" y="76" text-anchor="middle" fill="#3a352f" font-size="20">Voce</text><circle cx="-245" cy="25" r="15" fill="#3b82f6"/><text x="-245" y="59" text-anchor="middle" fill="#3a352f" font-size="20">Piano</text><circle cx="210" cy="30" r="15" fill="#3b82f6"/><text x="210" y="64" text-anchor="middle" fill="#3a352f" font-size="20">Chitarra</text><circle cx="430" cy="-70" r="15" fill="#1c1a17"/><text x="430" y="-36" text-anchor="middle" fill="#3a352f" font-size="20">Stage box</text><circle cx="-390" cy="-115" r="15" fill="#dc2626"/><text x="-390" y="-81" text-anchor="middle" fill="#3a352f" font-size="20">220V</text><circle cx="430" cy="-190" r="15" fill="#dc2626"/><text x="430" y="-156" text-anchor="middle" fill="#3a352f" font-size="20">220V</text></svg>