<svg xmlns="http://www.w3.org/2000/svg" viewBox="-760 -480 1520 615" role="img" aria-label="Anteprima stage plot Band pop/rock" font-family="-apple-system,Segoe UI,Roboto,sans-serif"><rect x="-760" y="-480" width="1520" height="615" fill="#f4f1ea"/><rect x="-720" y="-440" width="1440" height="535" rx="16" fill="#fffdfa" stroke="#e6e1d8" stroke-width="3"/><text x="0" y="-452" text-anchor="middle" fill="#9a948b" font-size="26" letter-spacing="2">FONDO PALCO</text><text x="0" y="123" text-anchor="middle" fill="#9a948b" font-size="26" letter-spacing="2">PUBBLICO</text><rect x="-150" y="-410" width="300" height="200" rx="10" fill="#efece6" stroke="#e0dace" stroke-width="2"/><circle cx="0" cy="-310" r="15" fill="#0d9488"/><circle cx="150" cy="-360" r="15" fill="#3b82f6"/><text x="150" y="-326" text-anchor="middle" fill="#3a352f" font-size="20">IEM batteria</text><circle cx="-490" cy="-290" r="15" fill="#6b665f"/><text x="-490" y="-256" text-anchor="middle" fill="#3a352f" font-size="20">Ampli basso</text><circle cx="-460" cy="-95" r="15" fill="#0d9488"/><text x="-460" y="-61" text-anchor="middle" fill="#3a352f" font-size="20">Basso</text><circle cx="-460" cy="5" r="15" fill="#3b82f6"/><text x="-460" y="39" text-anchor="middle" fill="#3a352f" font-size="20">Basso</text><circle cx="-250" cy="-150" r="15" fill="#0d9488"/><text x="-250" y="-116" text-anchor="middle" fill="#3a352f" font-size="20">Tastiere</text><circle cx="-250" cy="-42" r="15" fill="#3b82f6"/><text x="-250" y="-8" text-anchor="middle" fill="#3a352f" font-size="20">Tastiere</text><circle cx="490" cy="-290" r="15" fill="#6b665f"/><text x="490" y="-256" text-anchor="middle" fill="#3a352f" font-size="20">Ampli chitarra</text><circle cx="450" cy="-95" r="15" fill="#0d9488"/><text x="450" y="-61" text-anchor="middle" fill="#3a352f" font-size="20">Chitarra</text><circle cx="450" cy="5" r="15" fill="#3b82f6"/><text x="450" y="39" text-anchor="middle" fill="#3a352f" font-size="20">Chitarra</text><circle cx="220" cy="-70" r="15" fill="#0d9488"/><text x="220" y="-36" text-anchor="middle" fill="#3a352f" font-size="20">Cori</text><circle cx="220" cy="32" r="15" fill="#3b82f6"/><text x="220" y="66" text-anchor="middle" fill="#3a352f" font-size="20">Cori</text><circle cx="0" cy="-70" r="15" fill="#0d9488"/><text x="0" y="-36" text-anchor="middle" fill="#3a352f" font-size="20">Voce</text><circle cx="48" cy="-70" r="15" fill="#3b82f6"/><text x="48" y="-36" text-anchor="middle" fill="#3a352f" font-size="20">IEM voce</text><circle cx="-660" cy="30" r="15" fill="#3b82f6"/><text x="-660" y="64" text-anchor="middle" fill="#3a352f" font-size="20">Side fill DX</text><circle cx="660" cy="30" r="15" fill="#3b82f6"/><text x="660" y="64" text-anchor="middle" fill="#3a352f" font-size="20">Side fill SX</text><circle cx="-590" cy="-260" r="15" fill="#3b82f6"/><text x="-590" y="-226" text-anchor="middle" fill="#3a352f" font-size="20">TX in-ear</text><circle cx="590" cy="-260" r="15" fill="#1c1a17"/><text x="590" y="-226" text-anchor="middle" fill="#3a352f" font-size="20">Stage box</text><circle cx="-580" cy="-340" r="15" fill="#dc2626"/><text x="-580" y="-306" text-anchor="middle" fill="#3a352f" font-size="20">220V</text><circle cx="580" cy="-340" r="15" fill="#dc2626"/><text x="580" y="-306" text-anchor="middle" fill="#3a352f" font-size="20">220V</text></svg>