<svg xmlns="http://www.w3.org/2000/svg" viewBox="-779 -605 1553 806" role="img" aria-label="Anteprima stage plot Big band" font-family="-apple-system,Segoe UI,Roboto,sans-serif"><rect x="-779" y="-605" width="1553" height="806" fill="#f4f1ea"/><rect x="-739" y="-565" width="1473" height="726" rx="16" fill="#fffdfa" stroke="#e6e1d8" stroke-width="3"/><text x="-2" y="-577" text-anchor="middle" fill="#9a948b" font-size="26" letter-spacing="2">FONDO PALCO</text><text x="-2" y="189" text-anchor="middle" fill="#9a948b" font-size="26" letter-spacing="2">PUBBLICO</text><rect x="-380" y="-535" width="760" height="130" rx="10" fill="#efece6" stroke="#e0dace" stroke-width="2"/><rect x="-380" y="-395" width="760" height="130" rx="10" fill="#efece6" stroke="#e0dace" stroke-width="2"/><rect x="-490" y="-250" width="980" height="120" rx="10" fill="#efece6" stroke="#e0dace" stroke-width="2"/><circle cx="540" cy="-120" r="15" fill="#1c1a17"/><text x="540" y="-86" text-anchor="middle" fill="#3a352f" font-size="20">Stage box</text><circle cx="0" cy="10" r="15" fill="#0d9488"/><text x="0" y="44" text-anchor="middle" fill="#3a352f" font-size="20">Voce</text><circle cx="0" cy="105" r="15" fill="#3b82f6"/><text x="0" y="139" text-anchor="middle" fill="#3a352f" font-size="20">Voce</text><circle cx="520" cy="-410" r="15" fill="#0d9488"/><circle cx="410" cy="-345" r="15" fill="#3b82f6"/><text x="410" y="-311" text-anchor="middle" fill="#3a352f" font-size="20">Batteria</text><circle cx="670" cy="-240" r="15" fill="#6b665f"/><text x="670" y="-206" text-anchor="middle" fill="#3a352f" font-size="20">Ampli basso</text><circle cx="-670" cy="-240" r="15" fill="#6b665f"/><text x="-670" y="-206" text-anchor="middle" fill="#3a352f" font-size="20">Ampli chitarra</text><circle cx="-520" cy="-80" r="15" fill="#0d9488"/><text x="-520" y="-46" text-anchor="middle" fill="#3a352f" font-size="20">Piano</text><circle cx="-500" cy="35" r="15" fill="#3b82f6"/><text x="-500" y="69" text-anchor="middle" fill="#3a352f" font-size="20">Ritmica</text><circle cx="500" cy="35" r="15" fill="#3b82f6"/><text x="500" y="69" text-anchor="middle" fill="#3a352f" font-size="20">Ritmica</text><circle cx="-360" cy="-190" r="15" fill="#0d9488"/><text x="-360" y="-156" text-anchor="middle" fill="#3a352f" font-size="20">A1</text><circle cx="-180" cy="-190" r="15" fill="#0d9488"/><text x="-180" y="-156" text-anchor="middle" fill="#3a352f" font-size="20">T1</text><circle cx="0" cy="-190" r="15" fill="#0d9488"/><text x="0" y="-156" text-anchor="middle" fill="#3a352f" font-size="20">Bari</text><circle cx="180" cy="-190" r="15" fill="#0d9488"/><text x="180" y="-156" text-anchor="middle" fill="#3a352f" font-size="20">T2</text><circle cx="360" cy="-190" r="15" fill="#0d9488"/><text x="360" y="-156" text-anchor="middle" fill="#3a352f" font-size="20">A2</text><circle cx="-255" cy="-330" r="15" fill="#0d9488"/><text x="-255" y="-296" text-anchor="middle" fill="#3a352f" font-size="20">Tbn 1</text><circle cx="-85" cy="-330" r="15" fill="#0d9488"/><text x="-85" y="-296" text-anchor="middle" fill="#3a352f" font-size="20">Tbn 2</text><circle cx="85" cy="-330" r="15" fill="#0d9488"/><text x="85" y="-296" text-anchor="middle" fill="#3a352f" font-size="20">Tbn 3</text><circle cx="255" cy="-330" r="15" fill="#0d9488"/><text x="255" y="-296" text-anchor="middle" fill="#3a352f" font-size="20">Tbn 4</text><circle cx="-255" cy="-470" r="15" fill="#0d9488"/><text x="-255" y="-436" text-anchor="middle" fill="#3a352f" font-size="20">Tr 1</text><circle cx="-85" cy="-470" r="15" fill="#0d9488"/><text x="-85" y="-436" text-anchor="middle" fill="#3a352f" font-size="20">Tr 2</text><circle cx="85" cy="-470" r="15" fill="#0d9488"/><text x="85" y="-436" text-anchor="middle" fill="#3a352f" font-size="20">Tr 3</text><circle cx="255" cy="-470" r="15" fill="#0d9488"/><text x="255" y="-436" text-anchor="middle" fill="#3a352f" font-size="20">Tr 4</text></svg>