<svg xmlns="http://www.w3.org/2000/svg" viewBox="-700 -580 1400 721" role="img" aria-label="Anteprima stage plot Coro e piano" font-family="-apple-system,Segoe UI,Roboto,sans-serif"><rect x="-700" y="-580" width="1400" height="721" fill="#f4f1ea"/><rect x="-660" y="-540" width="1320" height="641" rx="16" fill="#fffdfa" stroke="#e6e1d8" stroke-width="3"/><text x="0" y="-552" text-anchor="middle" fill="#9a948b" font-size="26" letter-spacing="2">FONDO PALCO</text><text x="0" y="129" text-anchor="middle" fill="#9a948b" font-size="26" letter-spacing="2">PUBBLICO</text><rect x="-390" y="-510" width="780" height="120" rx="10" fill="#efece6" stroke="#e0dace" stroke-width="2"/><rect x="-390" y="-390" width="780" height="120" rx="10" fill="#efece6" stroke="#e0dace" stroke-width="2"/><circle cx="-250" cy="-240" r="15" fill="#0d9488"/><text x="-250" y="-206" text-anchor="middle" fill="#3a352f" font-size="20">Coro L</text><circle cx="0" cy="-240" r="15" fill="#0d9488"/><text x="0" y="-206" text-anchor="middle" fill="#3a352f" font-size="20">Coro C</text><circle cx="250" cy="-240" r="15" fill="#0d9488"/><text x="250" y="-206" text-anchor="middle" fill="#3a352f" font-size="20">Coro R</text><circle cx="0" cy="-140" r="15" fill="#0d9488"/><text x="0" y="-106" text-anchor="middle" fill="#3a352f" font-size="20">Direttore</text><circle cx="-380" cy="-190" r="15" fill="#0d9488"/><text x="-380" y="-156" text-anchor="middle" fill="#3a352f" font-size="20">Piano</text><circle cx="-300" cy="-110" r="15" fill="#0d9488"/><circle cx="-330" cy="-30" r="15" fill="#3b82f6"/><text x="-330" y="4" text-anchor="middle" fill="#3a352f" font-size="20">Direttore</text><circle cx="-130" cy="-55" r="15" fill="#0d9488"/><text x="-130" y="-21" text-anchor="middle" fill="#3a352f" font-size="20">Solista 1</text><circle cx="130" cy="-55" r="15" fill="#0d9488"/><text x="130" y="-21" text-anchor="middle" fill="#3a352f" font-size="20">Solista 2</text><circle cx="-130" cy="45" r="15" fill="#3b82f6"/><text x="-130" y="79" text-anchor="middle" fill="#3a352f" font-size="20">Solista 1</text><circle cx="130" cy="45" r="15" fill="#3b82f6"/><text x="130" y="79" text-anchor="middle" fill="#3a352f" font-size="20">Solista 2</text><circle cx="-600" cy="10" r="15" fill="#3b82f6"/><text x="-600" y="44" text-anchor="middle" fill="#3a352f" font-size="20">Side fill DX</text><circle cx="600" cy="10" r="15" fill="#3b82f6"/><text x="600" y="44" text-anchor="middle" fill="#3a352f" font-size="20">Side fill SX</text></svg>