<svg xmlns="http://www.w3.org/2000/svg" viewBox="-660 -415 1320 546" role="img" aria-label="Anteprima stage plot DJ set" font-family="-apple-system,Segoe UI,Roboto,sans-serif"><rect x="-660" y="-415" width="1320" height="546" fill="#f4f1ea"/><rect x="-620" y="-375" width="1240" height="466" rx="16" fill="#fffdfa" stroke="#e6e1d8" stroke-width="3"/><text x="0" y="-387" text-anchor="middle" fill="#9a948b" font-size="26" letter-spacing="2">FONDO PALCO</text><text x="0" y="119" text-anchor="middle" fill="#9a948b" font-size="26" letter-spacing="2">PUBBLICO</text><rect x="-130" y="-345" width="260" height="150" rx="10" fill="#efece6" stroke="#e0dace" stroke-width="2"/><circle cx="0" cy="-270" r="15" fill="#0d9488"/><text x="0" y="-236" text-anchor="middle" fill="#3a352f" font-size="20">Consolle DJ</text><circle cx="-190" cy="-185" r="15" fill="#3b82f6"/><text x="-190" y="-151" text-anchor="middle" fill="#3a352f" font-size="20">DJ</text><circle cx="190" cy="-185" r="15" fill="#3b82f6"/><text x="190" y="-151" text-anchor="middle" fill="#3a352f" font-size="20">DJ</text><circle cx="-150" cy="-72" r="15" fill="#0d9488"/><text x="-150" y="-38" text-anchor="middle" fill="#3a352f" font-size="20">MC</text><circle cx="-150" cy="35" r="15" fill="#3b82f6"/><text x="-150" y="69" text-anchor="middle" fill="#3a352f" font-size="20">MC</text><circle cx="350" cy="-120" r="15" fill="#0d9488"/><text x="350" y="-86" text-anchor="middle" fill="#3a352f" font-size="20">Sax</text><circle cx="350" cy="-18" r="15" fill="#3b82f6"/><text x="350" y="16" text-anchor="middle" fill="#3a352f" font-size="20">Sax</text><circle cx="-560" cy="20" r="15" fill="#3b82f6"/><text x="-560" y="54" text-anchor="middle" fill="#3a352f" font-size="20">Side fill DX</text><circle cx="560" cy="20" r="15" fill="#3b82f6"/><text x="560" y="54" text-anchor="middle" fill="#3a352f" font-size="20">Side fill SX</text><circle cx="430" cy="-220" r="15" fill="#1c1a17"/><text x="430" y="-186" text-anchor="middle" fill="#3a352f" font-size="20">Stage box</text><circle cx="-390" cy="-290" r="15" fill="#dc2626"/><text x="-390" y="-256" text-anchor="middle" fill="#3a352f" font-size="20">220V</text><circle cx="390" cy="-290" r="15" fill="#dc2626"/><text x="390" y="-256" text-anchor="middle" fill="#3a352f" font-size="20">220V</text></svg>