<svg xmlns="http://www.w3.org/2000/svg" viewBox="-540 -530 1094 668" role="img" aria-label="Anteprima stage plot Jazz combo" font-family="-apple-system,Segoe UI,Roboto,sans-serif"><rect x="-540" y="-530" width="1094" height="668" fill="#f4f1ea"/><rect x="-500" y="-490" width="1014" height="588" rx="16" fill="#fffdfa" stroke="#e6e1d8" stroke-width="3"/><text x="7" y="-502" text-anchor="middle" fill="#9a948b" font-size="26" letter-spacing="2">FONDO PALCO</text><text x="7" y="126" text-anchor="middle" fill="#9a948b" font-size="26" letter-spacing="2">PUBBLICO</text><rect x="-430" y="-460" width="860" height="500" rx="10" fill="#efece6" stroke="#e0dace" stroke-width="2"/><circle cx="300" cy="-330" r="15" fill="#0d9488"/><circle cx="150" cy="-250" r="15" fill="#3b82f6"/><text x="150" y="-216" text-anchor="middle" fill="#3a352f" font-size="20">Batteria</text><circle cx="-300" cy="-265" r="15" fill="#0d9488"/><text x="-300" y="-231" text-anchor="middle" fill="#3a352f" font-size="20">Piano</text><circle cx="-210" cy="-155" r="15" fill="#0d9488"/><circle cx="250" cy="-120" r="15" fill="#0d9488"/><text x="250" y="-86" text-anchor="middle" fill="#3a352f" font-size="20">Contrabbasso</text><circle cx="410" cy="-145" r="15" fill="#6b665f"/><text x="410" y="-111" text-anchor="middle" fill="#3a352f" font-size="20">Ampli basso</text><circle cx="60" cy="-90" r="15" fill="#0d9488"/><text x="60" y="-56" text-anchor="middle" fill="#3a352f" font-size="20">Sax</text><circle cx="-100" cy="-60" r="15" fill="#0d9488"/><text x="-100" y="-26" text-anchor="middle" fill="#3a352f" font-size="20">Voce</text><circle cx="-100" cy="42" r="15" fill="#3b82f6"/><text x="-100" y="76" text-anchor="middle" fill="#3a352f" font-size="20">Voce</text><circle cx="-300" cy="12" r="15" fill="#3b82f6"/><text x="-300" y="46" text-anchor="middle" fill="#3a352f" font-size="20">Piano</text><circle cx="160" cy="35" r="15" fill="#3b82f6"/><text x="160" y="69" text-anchor="middle" fill="#3a352f" font-size="20">Sax</text><circle cx="455" cy="-35" r="15" fill="#1c1a17"/><text x="455" y="-1" text-anchor="middle" fill="#3a352f" font-size="20">Stage box</text><circle cx="-455" cy="-195" r="15" fill="#dc2626"/><text x="-455" y="-161" text-anchor="middle" fill="#3a352f" font-size="20">220V</text><circle cx="460" cy="-150" r="15" fill="#dc2626"/><text x="460" y="-116" text-anchor="middle" fill="#3a352f" font-size="20">220V</text></svg>