<svg xmlns="http://www.w3.org/2000/svg" viewBox="-770 -480 1540 615" role="img" aria-label="Anteprima stage plot Matrimonio" font-family="-apple-system,Segoe UI,Roboto,sans-serif"><rect x="-770" y="-480" width="1540" height="615" fill="#f4f1ea"/><rect x="-730" y="-440" width="1460" height="535" rx="16" fill="#fffdfa" stroke="#e6e1d8" stroke-width="3"/><text x="0" y="-452" text-anchor="middle" fill="#9a948b" font-size="26" letter-spacing="2">FONDO PALCO</text><text x="0" y="123" text-anchor="middle" fill="#9a948b" font-size="26" letter-spacing="2">PUBBLICO</text><rect x="-150" y="-410" width="300" height="200" rx="10" fill="#efece6" stroke="#e0dace" stroke-width="2"/><circle cx="0" cy="-310" r="15" fill="#0d9488"/><circle cx="150" cy="-360" r="15" fill="#3b82f6"/><text x="150" y="-326" text-anchor="middle" fill="#3a352f" font-size="20">IEM batteria</text><circle cx="-500" cy="-290" r="15" fill="#6b665f"/><text x="-500" y="-256" text-anchor="middle" fill="#3a352f" font-size="20">Ampli basso</text><circle cx="-470" cy="-95" r="15" fill="#0d9488"/><text x="-470" y="-61" text-anchor="middle" fill="#3a352f" font-size="20">Basso</text><circle cx="-470" cy="5" r="15" fill="#3b82f6"/><text x="-470" y="39" text-anchor="middle" fill="#3a352f" font-size="20">Basso</text><circle cx="-270" cy="-155" r="15" fill="#0d9488"/><text x="-270" y="-121" text-anchor="middle" fill="#3a352f" font-size="20">Tastiere</text><circle cx="-270" cy="-45" r="15" fill="#3b82f6"/><text x="-270" y="-11" text-anchor="middle" fill="#3a352f" font-size="20">Tastiere</text><circle cx="500" cy="-290" r="15" fill="#6b665f"/><text x="500" y="-256" text-anchor="middle" fill="#3a352f" font-size="20">Ampli chitarra</text><circle cx="470" cy="-95" r="15" fill="#0d9488"/><text x="470" y="-61" text-anchor="middle" fill="#3a352f" font-size="20">Chitarra</text><circle cx="470" cy="5" r="15" fill="#3b82f6"/><text x="470" y="39" text-anchor="middle" fill="#3a352f" font-size="20">Chitarra</text><circle cx="270" cy="-155" r="15" fill="#0d9488"/><text x="270" y="-121" text-anchor="middle" fill="#3a352f" font-size="20">Sax</text><circle cx="270" cy="-48" r="15" fill="#3b82f6"/><text x="270" y="-14" text-anchor="middle" fill="#3a352f" font-size="20">Sax</text><circle cx="-70" cy="-72" r="15" fill="#0d9488"/><text x="-70" y="-38" text-anchor="middle" fill="#3a352f" font-size="20">Voce 1</text><circle cx="70" cy="-72" r="15" fill="#0d9488"/><text x="70" y="-38" text-anchor="middle" fill="#3a352f" font-size="20">Voce 2</text><circle cx="-70" cy="35" r="15" fill="#3b82f6"/><text x="-70" y="69" text-anchor="middle" fill="#3a352f" font-size="20">Voce 1</text><circle cx="70" cy="35" r="15" fill="#3b82f6"/><text x="70" y="69" text-anchor="middle" fill="#3a352f" font-size="20">Voce 2</text><circle cx="-670" cy="30" r="15" fill="#3b82f6"/><text x="-670" y="64" text-anchor="middle" fill="#3a352f" font-size="20">Side fill DX</text><circle cx="670" cy="30" r="15" fill="#3b82f6"/><text x="670" y="64" text-anchor="middle" fill="#3a352f" font-size="20">Side fill SX</text><circle cx="600" cy="-260" r="15" fill="#1c1a17"/><text x="600" y="-226" text-anchor="middle" fill="#3a352f" font-size="20">Stage box</text><circle cx="-590" cy="-340" r="15" fill="#dc2626"/><text x="-590" y="-306" text-anchor="middle" fill="#3a352f" font-size="20">220V</text><circle cx="590" cy="-340" r="15" fill="#dc2626"/><text x="590" y="-306" text-anchor="middle" fill="#3a352f" font-size="20">220V</text></svg>