<svg xmlns="http://www.w3.org/2000/svg" viewBox="-483 -1252 981 1373" role="img" aria-label="Anteprima stage plot Orchestra da camera" font-family="-apple-system,Segoe UI,Roboto,sans-serif"><rect x="-483" y="-1252" width="981" height="1373" fill="#f4f1ea"/><rect x="-443" y="-1212" width="901" height="1293" rx="16" fill="#fffdfa" stroke="#e6e1d8" stroke-width="3"/><text x="8" y="-1224" text-anchor="middle" fill="#9a948b" font-size="26" letter-spacing="2">FONDO PALCO</text><text x="8" y="108" text-anchor="middle" fill="#9a948b" font-size="26" letter-spacing="2">PUBBLICO</text><circle cx="-267" cy="-114" r="15" fill="#0d9488"/><text x="-267" y="-80" text-anchor="middle" fill="#3a352f" font-size="20">Violino I 1</text><circle cx="-203" cy="-207" r="15" fill="#0d9488"/><text x="-203" y="-173" text-anchor="middle" fill="#3a352f" font-size="20">Violino I 2</text><circle cx="-110" cy="-268" r="15" fill="#0d9488"/><text x="-110" y="-234" text-anchor="middle" fill="#3a352f" font-size="20">Violino II 1</text><circle cx="0" cy="-290" r="15" fill="#0d9488"/><text x="0" y="-256" text-anchor="middle" fill="#3a352f" font-size="20">Violino II 2</text><circle cx="110" cy="-268" r="15" fill="#0d9488"/><text x="110" y="-234" text-anchor="middle" fill="#3a352f" font-size="20">Viola 1</text><circle cx="203" cy="-207" r="15" fill="#0d9488"/><text x="203" y="-173" text-anchor="middle" fill="#3a352f" font-size="20">Viola 2</text><circle cx="267" cy="-114" r="15" fill="#0d9488"/><text x="267" y="-80" text-anchor="middle" fill="#3a352f" font-size="20">Violoncello 1</text><circle cx="-363" cy="-248" r="15" fill="#0d9488"/><text x="-363" y="-214" text-anchor="middle" fill="#3a352f" font-size="20">Violino I 3</text><circle cx="-242" cy="-367" r="15" fill="#0d9488"/><text x="-242" y="-333" text-anchor="middle" fill="#3a352f" font-size="20">Violino I 4</text><circle cx="-85" cy="-432" r="15" fill="#0d9488"/><text x="-85" y="-398" text-anchor="middle" fill="#3a352f" font-size="20">Violino II 3</text><circle cx="85" cy="-432" r="15" fill="#0d9488"/><text x="85" y="-398" text-anchor="middle" fill="#3a352f" font-size="20">Violino II 4</text><circle cx="242" cy="-367" r="15" fill="#0d9488"/><text x="242" y="-333" text-anchor="middle" fill="#3a352f" font-size="20">Viola 3</text><circle cx="363" cy="-248" r="15" fill="#0d9488"/><text x="363" y="-214" text-anchor="middle" fill="#3a352f" font-size="20">Violoncello 2</text><circle cx="353" cy="-473" r="15" fill="#0d9488"/><text x="353" y="-439" text-anchor="middle" fill="#3a352f" font-size="20">Contrabbasso 1</text><circle cx="-112" cy="-780" r="15" fill="#0d9488"/><text x="-112" y="-746" text-anchor="middle" fill="#3a352f" font-size="20">Flauto</text><circle cx="113" cy="-780" r="15" fill="#0d9488"/><text x="113" y="-746" text-anchor="middle" fill="#3a352f" font-size="20">Oboe</text><circle cx="-112" cy="-955" r="15" fill="#0d9488"/><text x="-112" y="-921" text-anchor="middle" fill="#3a352f" font-size="20">Clarinetto</text><circle cx="113" cy="-955" r="15" fill="#0d9488"/><text x="113" y="-921" text-anchor="middle" fill="#3a352f" font-size="20">Fagotto</text><circle cx="-65" cy="-1130" r="15" fill="#0d9488"/><text x="-65" y="-1096" text-anchor="middle" fill="#3a352f" font-size="20">Corno 1</text><circle cx="65" cy="-1130" r="15" fill="#0d9488"/><text x="65" y="-1096" text-anchor="middle" fill="#3a352f" font-size="20">Corno 2</text><circle cx="0" cy="0" r="15" fill="#0d9488"/></svg>