<svg xmlns="http://www.w3.org/2000/svg" viewBox="-790 -495 1580 630" role="img" aria-label="Anteprima stage plot Tributo / cover" font-family="-apple-system,Segoe UI,Roboto,sans-serif"><rect x="-790" y="-495" width="1580" height="630" fill="#f4f1ea"/><rect x="-750" y="-455" width="1500" height="550" rx="16" fill="#fffdfa" stroke="#e6e1d8" stroke-width="3"/><text x="0" y="-467" text-anchor="middle" fill="#9a948b" font-size="26" letter-spacing="2">FONDO PALCO</text><text x="0" y="123" text-anchor="middle" fill="#9a948b" font-size="26" letter-spacing="2">PUBBLICO</text><rect x="-160" y="-425" width="320" height="210" rx="10" fill="#efece6" stroke="#e0dace" stroke-width="2"/><circle cx="0" cy="-320" r="15" fill="#0d9488"/><circle cx="160" cy="-370" r="15" fill="#3b82f6"/><text x="160" y="-336" text-anchor="middle" fill="#3a352f" font-size="20">IEM batteria</text><circle cx="-530" cy="-300" r="15" fill="#6b665f"/><text x="-530" y="-266" text-anchor="middle" fill="#3a352f" font-size="20">Ampli basso</text><circle cx="-500" cy="-95" r="15" fill="#0d9488"/><text x="-500" y="-61" text-anchor="middle" fill="#3a352f" font-size="20">Basso</text><circle cx="-500" cy="5" r="15" fill="#3b82f6"/><text x="-500" y="39" text-anchor="middle" fill="#3a352f" font-size="20">Basso</text><circle cx="-310" cy="-160" r="15" fill="#0d9488"/><text x="-310" y="-126" text-anchor="middle" fill="#3a352f" font-size="20">Tastiere</text><circle cx="-310" cy="-52" r="15" fill="#3b82f6"/><text x="-310" y="-18" text-anchor="middle" fill="#3a352f" font-size="20">Tastiere</text><circle cx="530" cy="-300" r="15" fill="#6b665f"/><text x="530" y="-266" text-anchor="middle" fill="#3a352f" font-size="20">Ampli chitarra 1</text><circle cx="500" cy="-95" r="15" fill="#0d9488"/><text x="500" y="-61" text-anchor="middle" fill="#3a352f" font-size="20">Chitarra 1</text><circle cx="500" cy="5" r="15" fill="#3b82f6"/><text x="500" y="39" text-anchor="middle" fill="#3a352f" font-size="20">Chitarra 1</text><circle cx="310" cy="-300" r="15" fill="#6b665f"/><text x="310" y="-266" text-anchor="middle" fill="#3a352f" font-size="20">Ampli chitarra 2</text><circle cx="300" cy="-95" r="15" fill="#0d9488"/><text x="300" y="-61" text-anchor="middle" fill="#3a352f" font-size="20">Chitarra 2</text><circle cx="300" cy="5" r="15" fill="#3b82f6"/><text x="300" y="39" text-anchor="middle" fill="#3a352f" font-size="20">Chitarra 2</text><circle cx="130" cy="-72" r="15" fill="#0d9488"/><text x="130" y="-38" text-anchor="middle" fill="#3a352f" font-size="20">Cori</text><circle cx="130" cy="32" r="15" fill="#3b82f6"/><text x="130" y="66" text-anchor="middle" fill="#3a352f" font-size="20">Cori</text><circle cx="-60" cy="-72" r="15" fill="#0d9488"/><text x="-60" y="-38" text-anchor="middle" fill="#3a352f" font-size="20">Voce</text><circle cx="-60" cy="35" r="15" fill="#3b82f6"/><text x="-60" y="69" text-anchor="middle" fill="#3a352f" font-size="20">Voce</text><circle cx="-690" cy="30" r="15" fill="#3b82f6"/><text x="-690" y="64" text-anchor="middle" fill="#3a352f" font-size="20">Side fill DX</text><circle cx="690" cy="30" r="15" fill="#3b82f6"/><text x="690" y="64" text-anchor="middle" fill="#3a352f" font-size="20">Side fill SX</text><circle cx="-610" cy="-270" r="15" fill="#3b82f6"/><text x="-610" y="-236" text-anchor="middle" fill="#3a352f" font-size="20">TX in-ear</text><circle cx="610" cy="-270" r="15" fill="#1c1a17"/><text x="610" y="-236" text-anchor="middle" fill="#3a352f" font-size="20">Stage box</text><circle cx="-600" cy="-350" r="15" fill="#dc2626"/><text x="-600" y="-316" text-anchor="middle" fill="#3a352f" font-size="20">220V</text><circle cx="600" cy="-350" r="15" fill="#dc2626"/><text x="600" y="-316" text-anchor="middle" fill="#3a352f" font-size="20">220V</text></svg>